<?xml version="1.0" encoding="UTF-8"?>
<svg id="Calque_2" data-name="Calque 2" xmlns="http://www.w3.org/2000/svg" viewBox="0 0 895.64 1109.52">
  <g id="Calque_1-2" data-name="Calque 1">
    <path d="M880.54,615.03c-2.28,.78-5.66-.59-6.45,3.55-.56-1.02-1.15-2.01-1.67-3.05-9.92-19.84-15.92-41.01-20.52-62.56-4.36-20.39-7.94-40.95-11.82-61.16-.14,.35-.5,1.21-.81,2.09-10.72,30.85-21.4,61.71-32.17,92.54-3.1,8.87-10.3,13.16-19.71,12.08-8.24-.94-13.16-5.9-14.83-14.74-.42-2.23-1.08-4.46-1.94-6.55-9.37-22.79-18.8-45.55-28.22-68.32-.43-1.03-.89-2.05-1.57-3.61-3.53,26.49-6.98,52.37-10.49,78.68-3.77-1.4-5.06,.45-6.33,2.91-2.37,4.58-5.16,8.94-7.55,13.51-1.15,2.2-2.56,3.76-5.07,4.07-3.53,.43-5.79,2.39-6.48,5.14-3.09-.45-6.19-1.85-8.27-.93-2.14,.95-3.28,4.16-5.47,7.24,1.55-24.08,3.05-47.27,4.55-70.47-.33-.28-.66-.57-.98-.85-2.05,6.66-8.22,7.76-14,10.92,2.86,.38,4.69,.62,7.5,1-2.12,1.05-3.39,1.52-4.49,2.24-3.72,2.45-8.16,4.34-10.88,7.64-4.36,5.31-9.75,7.16-16.08,8.69-40.41,9.81-79.66,23.07-117.19,41.14-3.09,1.49-5.6,1.23-7.75-1.15-8.17-9.04-11.99-19.69-11.01-31.86,.46-5.68,4.17-9.04,9.39-10.68,2.14-.67,2.71-1.78,2.7-3.95-.28-40.52-.45-81.04-.74-121.55-.04-5.91-.54-11.81-.83-17.84-3.68,3.38-6.96,6.68-10.56,9.6-2.65,2.15-5.63,3.93-8.62,5.61-5.69,3.2-11.8,4.64-18.4,4.77-11.11,.23-22.21,.99-33.65,1.55-.22,3.67-.39,7.18-.63,10.68-1.93,27.82-3.76,55.64-5.87,83.44-.85,11.2-1.84,22.45-3.76,33.5-.97,5.61-2.93,12.02-6.69,15.87-3.14,3.22-4.38,6.88-6.57,10.27-.23,.36-.6,.99-.83,.96-4.17-.6-4.17,3.02-5.56,5.3-.51,.84-1.53,1.36-2.24,2.11-1.59,1.69-3.12,3.43-4.87,5.36-.79-2.05-1.53-3.98-2.51-6.51-1.23,3.58-2.2,6.41-3.18,9.25-.37-.05-.75-.1-1.12-.15-1.05-55.77-2.11-111.53-3.17-167.6-6.63,.34-12.46,.59-18.28,.93-9.39,.55-18.78,1.21-28.18,1.71-7.53,.4-13.36-2.54-17.13-9.23-5.88-10.42-6.46-21.33-2.89-32.57,2.07-6.49,6.71-9.42,13.45-9.69,13.18-.53,26.35-1.26,39.53-1.92,4.59-.23,8.89-.6,13.51-2.3,9.66-3.56,19.8-3.19,29.43,1.51,1.89,.92,4.05,1.61,6.13,1.74,20.96,1.33,41.92,2.5,62.88,3.75,4.92,.29,9.84,1.09,14.76,1.03,6.14-.07,12.27-.76,18.4-1.22,30.9-2.34,61.85-3.31,92.84-2.95,11.57,.14,23.15,.02,34.96,.02,0,2.72,.2,4.88-.1,6.97-.13,.88-1.21,1.74-2.03,2.37-4.31,3.33-8.68,6.59-13.58,10.28,1.8,.36,2.87,.57,4.72,.94-2.22,1.18-3.91,2.11-5.63,2.99-1.92,.99-3.83,1.66-4.02,4.53-.07,.99-2.44,2.01-3.9,2.7-8.11,3.77-16.89,4.79-25.61,6.12-13.37,2.05-26.72,4.24-40.08,6.39-.78,.13-1.53,.39-2.37,.61-.58,9.66-1.16,19.24-1.71,28.56,24.99-1.59,49.75-3.16,74.78-4.74-1.19,5.32-1.96,9.67-3.25,13.86-.33,1.08-2.29,1.69-3.54,2.44-1.47,.88-2.99,1.68-4.87,2.72,.92,.34,1.52,.56,2.13,.79-2.17,3.69-8.6,3.14-8.9,9.18-1.51,.42-3.22,.97-4.97,1.36-3.01,.67-6.09,.99-7.52,4.49-.34,.84-1.83,1.25-2.84,1.78-11.81,6.26-24.98,8.18-37.64,11.7-7.89,2.19-7.9,2.01-8.9,10.13-1.11,8.99-2.3,17.96-3.51,27.36,41.37-11.91,82.63-23.36,126.74-19.28,1.36-45.34,4.23-90.67-.2-136.33,6.08-1.84,12.36-2.47,18.83-2.05,3.72,.25,7.49-.22,11.21,0,6.36,.37,12.85,.39,19.03,1.74,7.05,1.54,11.61,6.45,13.61,13.64,9.25,33.23,18.59,66.43,27.9,99.64,.24,.87,.53,1.73,1,3.26,1.98-5.12,3.7-9.65,5.47-14.15,11.48-29.25,24.11-57.99,38.2-86.07,1.47-2.92,2.52-5.77,2.23-9.16-.1-1.1,.92-2.96,1.91-3.41,11.56-5.27,23.58-7.42,36.17-4.52,7.6,1.75,11.79,6.74,12.79,14.36,.49,3.74,.68,7.54,.81,11.31,.95,28.9,1.29,57.84,2.96,86.7,1.22,21.05,4.4,41.98,6.21,63,.38,4.47-1.4,9.13-2.19,13.7-6.17,3.55-3.39,10.67-6.22,15.53-.64,1.1-1.83,1.86-2.73,2.82-.69,.73-1.64,1.42-1.91,2.3-.42,1.39-.35,2.92-.49,4.43Z"/>
    <path d="M447.27,1080.18c1.6-1.53,2.44-2.3,3.25-3.1,65.83-65.97,131.67-131.93,197.47-197.92,72.12-72.33,144.2-144.7,216.24-217.11,2.11-2.13,4.21-3.02,7.19-2.95,7.78,.19,15.57,.06,24.23,.06-1.28,1.37-2.05,2.25-2.87,3.08-10.13,10.16-20.3,20.28-30.34,30.52-1.46,1.49-2.7,3.45-3.35,5.42-36.18,110.94-105.18,194.86-207.14,251.59-23.8,13.24-48.85,23.66-74.84,31.82-2.28,.72-4.61,2.1-6.3,3.79-39.96,39.9-79.83,79.89-119.71,119.87-.97,.97-1.79,2.09-3.65,4.27-1.02-1.66-1.53-3.01-2.47-3.95-39.77-39.92-79.56-79.83-119.45-119.63-2-2-4.73-3.66-7.42-4.52-134.21-42.66-239.95-148.97-281.7-283.27-.58-1.87-1.73-3.76-3.1-5.16-10.13-10.32-20.39-20.52-30.6-30.76-.79-.79-1.53-1.63-2.71-2.88,1.7-.08,2.9-.18,4.09-.18,8.03,.03,16.06,.09,24.09,.13,5.71,5.63,11.47,11.21,17.14,16.89,133.11,133.41,266.22,266.83,399.3,400.27,1.04,1.04,1.74,2.41,2.66,3.72Zm-156.89-127.81c.33-.37,.67-.73,1-1.1-75.25-74.75-150.49-149.49-225.53-224.03,45.02,104.49,119.8,179.74,224.53,225.13Zm538.51-223.31c-73.82,72.94-149.29,147.51-224.76,222.08,.43,.43,.86,.86,1.29,1.29,104.51-45.63,179.41-120.78,223.47-223.37Z"/>
    <path d="M44.66,566.79c24.67-.47,49.18-1.36,71.07,12.99,1.39-3.74,4.88-5.89,8.97-7.53,1-.41,2.03-2.04,2.12-3.18,.3-3.77,.21-7.57,.2-11.36-.12-34.2-.03-68.41-.51-102.61-.21-14.87-1.58-29.72-2.48-45.56,5.15-.85,11.06-2.18,17.03-2.74,9.01-.85,18.06-1.55,27.1-1.66,32.01-.4,64.02-.53,96.03-.74,.88,0,1.77,.11,2.66,.17,0,2.26,.12,4.31-.06,6.33-.07,.74-.73,1.6-1.37,2.08-4.55,3.45-9.16,6.82-14.29,10.61,1.77,.39,2.92,.64,4.75,1.04-2.09,1.09-3.74,1.93-5.36,2.81-1.95,1.06-4.4,1.6-4.17,4.74,.04,.54-1.33,1.36-2.18,1.76-8.6,4.05-17.84,5.58-27.15,6.95-13.5,1.98-26.95,4.24-40.43,6.39-.78,.12-1.54,.37-2.58,.62-.58,9.71-1.16,19.38-1.76,29.25,25.09-2.74,49.96-4.79,75.03-4.63-1.11,4.48-1.92,8.73-3.31,12.8-.41,1.2-2.41,1.91-3.75,2.74-1.46,.9-2.99,1.69-4.83,2.71,.98,.33,1.64,.55,2.26,.76-2.35,3.67-8.84,3.19-9.06,9.22-1.59,.44-3.22,.96-4.89,1.32-3.01,.66-6.09,1.01-7.54,4.48-.35,.84-1.83,1.25-2.83,1.79-10.96,5.86-23.21,7.69-34.96,11.06-3.51,1.01-8.23,.94-10.22,3.24-1.98,2.29-1.23,6.95-1.7,10.56-1.06,8.06-2.13,16.12-3.23,24.36,42.44-12.16,84.76-24.21,130.43-18.92-4.6,7.57-9,14.18-17.95,16.12,.13,.26,.25,.52,.38,.79,1.82,.28,3.63,.56,6.29,.98-1.74,.91-2.75,1.49-3.81,1.98-5.71,2.64-10.57,6.29-14.67,11.14-1.46,1.73-3.72,3.39-5.87,3.83-23.19,4.75-45.82,11.48-67.94,19.73-19.09,7.12-37.78,15.29-56.59,23.14-2.84,1.18-5.25,1.14-7.18-1.06-2.32-2.65-4.27-5.63-6.32-8.51-.63-.88-1.06-1.9-1.82-3.3-.56,1.68-.95,2.82-1.3,3.87-21.42-3.74-42.4-1.41-63.18,3.3-9.93,2.25-19.75,5.08-29.5,8.05-11.09,3.39-19.41-1.06-22.15-12.37-2.05-8.46-1.8-16.87,1.2-25.06,.68-1.84,2.48-3.25,3.64-4.94,.58-.85,1.17-1.87,1.22-2.85,.17-3.21,.11-6.43,.09-9.64-.22-40.75-.28-81.49-.79-122.24-.15-11.79-1.53-23.57-2.51-35.34-.29-3.47,1.4-5.31,4.33-6.02,20.99-5.07,39.76,1.5,44.46,26.54,2.09,11.12,1.19,22.19,.33,33.28-1.87,24.25-3.87,48.49-5.95,72.73-.86,10.06-2.05,20.08-3.09,30.13-.13,1.22-.2,2.45-.32,3.87Z"/>
    <path d="M830.84,342.77c-4.76,.99-8.04,.06-11.39-3.31-55.57-55.95-111.31-111.73-166.99-167.57-53.4-53.57-106.77-107.17-160.13-160.78-.97-.97-1.72-2.15-2.83-3.55-12.92,12.33-25.32,24.18-37.83,36.12,14.06,13.63,27.89,27.04,41.96,40.69-15.26,15.62-30.38,31.1-45.61,46.69-15.45-15.78-30.76-31.41-46.39-47.38,13.41-12.82,27.47-26.25,41.87-40.01-12.21-11.85-24.35-23.63-37.71-36.59-.81,1.42-1.31,2.96-2.32,3.97C294.46,120.38,185.41,229.66,76.46,339.05c-3.35,3.36-6.6,5.01-11.78,3.68C178.65,228.47,292.46,114.39,406.57,0c13.64,13.2,27.18,26.32,41.02,39.72,13.88-13.23,27.63-26.35,41.65-39.73,113.82,114.22,227.55,228.33,341.59,342.77ZM409.55,83.9c12.86,13.06,25.57,25.96,38.48,39.07,12.49-12.78,24.97-25.56,37.6-38.49-12.73-12.35-25.3-24.53-38.05-36.89-12.98,12.4-25.73,24.57-38.03,36.31Z"/>
    <path d="M64.88,659.61c5.17-1.39,8.41,.28,11.75,3.63,108.86,109.29,217.82,218.48,326.75,327.69,1.04,1.04,1.91,2.24,3,3.53,12.64-12.25,24.8-24.05,37.11-35.99-14.2-13.58-28.22-26.97-41.84-39.99,15.48-15.75,30.87-31.4,46.49-47.28,15.06,15.41,30.18,30.9,45.47,46.55-14.01,13.59-27.84,26.99-41.95,40.68,12.51,11.96,24.9,23.79,37.88,36.19,.81-1.14,1.36-2.19,2.16-2.99,52.03-52.18,104.1-104.31,156.12-156.49,57.37-57.54,114.69-115.12,172.04-172.69,3.79-3.81,4.31-3.95,10.68-2.82-113.78,114.18-227.4,228.19-341.28,342.48-13.89-13.25-27.63-26.36-41.65-39.73-13.7,13.26-27.27,26.39-41.04,39.72-113.92-114.18-227.69-228.21-341.69-342.48Zm382.68,294.91c12.83-12.44,25.38-24.6,38.07-36.89-12.74-13.04-25.2-25.79-37.77-38.65-12.93,13.17-25.6,26.08-38.42,39.14,12.43,11.87,25.09,23.97,38.12,36.41Z"/>
    <path d="M33,317.16C70.17,176.85,185.42,56.83,332.28,16.89c-.77,.94-1.22,1.62-1.78,2.18-7.85,7.89-15.68,15.8-23.62,23.6-1.25,1.23-2.94,2.16-4.6,2.81-114.37,45.29-194.27,125.15-239.92,239.33-1.4,3.5-3.22,6.43-5.91,9.05-7.73,7.5-15.3,15.17-23.45,23.29Z"/>
    <path d="M861.89,316.26c-.52-.39-1.1-.71-1.55-1.17-8.03-8.03-16.08-16.06-24.04-24.16-.92-.94-1.57-2.24-2.05-3.49-35.68-92.76-96.51-164.09-182.26-214.24-18.65-10.91-38.19-19.89-58.32-27.67-1.95-.75-3.87-2-5.37-3.47-8.29-8.07-16.45-16.29-24.9-24.7,20.36,.59,94.18,35.41,132.4,62.45,40.57,28.69,75.21,63.36,103.81,104.01,28.46,40.46,49.47,84.47,62.29,132.44Z"/>
    <path d="M573.49,380.11c1.23-4.36,1.91-8.96,3.78-13.02,5.69-12.35,14.09-22.41,26.24-29.06,5.35-2.93,10.37-3.21,15.95-.4,11.75,5.91,18.94,17.15,17.46,28.58-.34,2.67-1.27,5.37-2.47,7.78-.72,1.44-2.3,2.89-3.81,3.43-13.06,4.65-25.83,9.79-37.84,16.9-7.12,4.21-16.72,3.48-18.15-8.52-.22-1.82-.34-3.64-.5-5.47-.22-.08-.44-.15-.66-.23Z"/>
    <path d="M449.53,275.65c-11.41-13.96-22.83-27.92-34.88-42.66v42.19h-3.85v-51.92c4.2,3.07,6.46,7.01,9.32,10.32,3,3.47,5.82,7.1,8.71,10.66,2.9,3.56,5.79,7.13,8.68,10.69,2.89,3.55,5.78,7.09,9.18,11.27v-42.01c1.43-.1,2.5-.18,3.86-.28v51.18c-.34,.19-.69,.38-1.03,.57Z"/>
    <path d="M301.5,779.19h35.04c.09,1.3,.17,2.38,.26,3.7h-39.09c0-4.71-.44-9.31,.1-13.79,.79-6.53,6.27-10.61,13.95-11.45,4.88-.53,9.88-.83,14.56-2.15,6.1-1.73,9.15-7.67,6.66-12.9-1.21-2.54-3.79-4.99-6.36-6.22-5.8-2.77-12.04-2.43-18.08-.35-4.18,1.44-6.46,4.59-6.96,9.13h-3.33c-.39-5.49,2.4-9.94,7.9-12.03,7.44-2.83,15.05-2.97,22.45,.06,5.57,2.29,8.73,6.59,8.74,12.78,0,6.11-3.17,10.51-8.68,12.36-4.8,1.61-10.05,1.86-15.09,2.8-2.23,.42-4.55,.77-6.61,1.65-3.57,1.52-5.45,4.41-5.45,8.39,0,2.51,0,5.02,0,8.02Z"/>
    <path d="M599.36,271.43v3.7h-35.96v-51h34.93c.06,1.02,.11,1.99,.19,3.39h-31.24v19.96h29.58v3.8h-29.65v20.14h32.15Z"/>
    <path d="M394.03,757.05c0-3.43-.48-6.95,.09-10.28,1.64-9.59,9.46-15.8,19.24-15.78,9.76,.03,17.75,5.96,18.98,15.51,.92,7.19,.93,14.69-.04,21.87-1.33,9.84-10.29,16.01-20.17,15.17-10.69-.91-17.88-8.02-18.33-18.23-.12-2.75-.02-5.5-.02-8.25,.09,0,.17,0,.26,0Zm35.39,.21c-.15-.01-.3-.02-.46-.03,0-2.86,.21-5.75-.04-8.59-.68-7.77-6.75-13.38-14.61-13.74-8.46-.39-15.39,4.48-16.24,12.5-.7,6.67-.66,13.52,.04,20.19,.74,7.07,6.95,11.93,14.06,12.26,7.86,.36,14.21-3.61,16-10.7,.96-3.82,.86-7.91,1.24-11.89Z"/>
    <path d="M296.07,265.2c1.55-.79,2.53-1.29,3.48-1.77,6.82,8.38,16.65,11.21,26.67,7.8,4.79-1.63,7.61-5.17,7.59-9.53-.02-3.95-2.35-7.1-7.21-8.57-5.03-1.52-10.26-2.38-15.35-3.72-2.64-.69-5.35-1.47-7.72-2.76-6.43-3.51-7.63-12.26-2.62-17.65,8.19-8.81,28.1-7.31,35.06,2.87-.89,.6-1.78,1.19-2.76,1.85-6.56-7.94-14.93-7.69-23.64-5.53-1.71,.43-3.41,1.46-4.77,2.61-4.63,3.9-3.99,10.63,1.54,12.98,4.06,1.73,8.56,2.41,12.87,3.56,3.54,.94,7.17,1.62,10.58,2.9,4.79,1.79,7.68,5.35,7.91,10.64,.23,5.23-1.78,9.32-6.39,12.09-8.21,4.93-22.96,3.95-30.26-2.24-1.78-1.51-3.16-3.48-4.97-5.51Z"/>
    <path d="M526.82,266.01c.69,.65,1.42,1.33,2.13,1.99-7.32,9.67-26.53,10.49-36.55,1.7-10.77-9.45-11.09-29.03-.63-39.39,9.49-9.41,28.71-9.09,37.2,.8-.7,.65-1.41,1.31-2.07,1.93-13.5-8.25-26.44-7.75-33.72,1.19-7.32,8.98-6.92,23.26,.88,31.67,7.62,8.22,20.84,8.3,32.77,.11Z"/>
    <path d="M593.55,735.39h-32.91v-3.61h37.63c-.52,2.01-.61,3.95-1.47,5.46-8.23,14.43-16.65,28.75-24.87,43.19-1.37,2.41-2.92,3.26-5.86,2.31,9.05-15.59,18.05-31.11,27.48-47.34Z"/>
    <path d="M494.34,735.09h-8.04v-3.31h12.19v47.7h8.71c.07,1.34,.11,2.29,.17,3.44h-21.04c-.06-.98-.11-1.92-.18-3.12h8.19v-44.71Z"/>
    <path d="M370.99,224.05h3.43v51.15c-1.05,.05-2.11,.1-3.43,.17v-51.32Z"/>
  </g>
</svg>