<?xml version="1.0" encoding="UTF-8"?>
<svg id="Calque_2" data-name="Calque 2" xmlns="http://www.w3.org/2000/svg" viewBox="0 0 893.42 285.29">
  <defs>
    <style>
      .cls-1 {
        fill: #fff;
      }
    </style>
  </defs>
  <path class="cls-1" d="M879.83,279.36c-2.28,.78-5.66-.59-6.45,3.55-.56-1.02-1.15-2.01-1.67-3.05-9.92-19.84-15.92-41.01-20.52-62.56-4.36-20.39-7.94-40.95-11.82-61.16-.14,.35-.5,1.21-.81,2.09-10.72,30.85-21.4,61.71-32.17,92.54-3.1,8.87-10.3,13.16-19.71,12.08-8.24-.94-13.16-5.9-14.83-14.74-.42-2.23-1.08-4.46-1.94-6.55-9.37-22.79-18.8-45.55-28.22-68.32-.43-1.03-.89-2.05-1.57-3.61-3.53,26.49-6.98,52.37-10.49,78.68-3.77-1.4-5.06,.45-6.33,2.91-2.37,4.58-5.16,8.94-7.55,13.51-1.15,2.2-2.56,3.76-5.07,4.07-3.53,.43-5.79,2.39-6.48,5.14-3.09-.45-6.19-1.85-8.27-.93-2.14,.95-3.28,4.16-5.47,7.24,1.55-24.08,3.05-47.27,4.55-70.47-.33-.28-.66-.57-.98-.85-2.05,6.66-8.22,7.76-14,10.92,2.86,.38,4.69,.62,7.5,1-2.12,1.05-3.39,1.52-4.49,2.24-3.72,2.45-8.16,4.34-10.88,7.64-4.36,5.31-9.75,7.16-16.08,8.69-40.41,9.81-79.66,23.07-117.19,41.14-3.09,1.49-5.6,1.23-7.75-1.15-8.17-9.04-11.99-19.69-11.01-31.86,.46-5.68,4.17-9.04,9.39-10.68,2.14-.67,2.71-1.78,2.7-3.95-.28-40.52-.45-81.04-.74-121.55-.04-5.91-.54-11.81-.83-17.84-3.68,3.38-6.96,6.68-10.56,9.6-2.65,2.15-5.63,3.93-8.62,5.61-5.69,3.2-11.8,4.64-18.4,4.77-11.11,.23-22.21,.99-33.65,1.55-.22,3.67-.39,7.18-.63,10.68-1.93,27.82-3.76,55.64-5.87,83.44-.85,11.2-1.84,22.45-3.76,33.5-.97,5.61-2.93,12.02-6.69,15.87-3.14,3.22-4.38,6.88-6.57,10.27-.23,.36-.6,.99-.83,.96-4.17-.6-4.17,3.02-5.56,5.3-.51,.84-1.53,1.36-2.24,2.11-1.59,1.69-3.12,3.43-4.87,5.36-.79-2.05-1.53-3.98-2.51-6.51-1.23,3.58-2.2,6.41-3.18,9.25-.37-.05-.75-.1-1.12-.15-1.05-55.77-2.11-111.53-3.17-167.6-6.63,.34-12.46,.59-18.28,.93-9.39,.55-18.78,1.21-28.18,1.71-7.53,.4-13.36-2.54-17.13-9.23-5.88-10.42-6.46-21.33-2.89-32.57,2.07-6.49,6.71-9.42,13.45-9.69,13.18-.53,26.35-1.26,39.53-1.92,4.59-.23,8.89-.6,13.51-2.3,9.66-3.56,19.8-3.19,29.43,1.51,1.89,.92,4.05,1.61,6.13,1.74,20.96,1.33,41.92,2.5,62.88,3.75,4.92,.29,9.84,1.09,14.76,1.03,6.14-.07,12.27-.76,18.4-1.22,30.9-2.34,61.85-3.31,92.84-2.95,11.57,.14,23.15,.02,34.96,.02,0,2.72,.2,4.88-.1,6.97-.13,.88-1.21,1.74-2.03,2.37-4.31,3.33-8.68,6.59-13.58,10.28,1.8,.36,2.87,.57,4.72,.94-2.22,1.18-3.91,2.11-5.63,2.99-1.92,.99-3.83,1.66-4.02,4.53-.07,.99-2.44,2.01-3.9,2.7-8.11,3.77-16.89,4.79-25.61,6.12-13.37,2.05-26.72,4.24-40.08,6.39-.78,.13-1.53,.39-2.37,.61-.58,9.66-1.16,19.24-1.71,28.56,24.99-1.59,49.75-3.16,74.78-4.74-1.19,5.32-1.96,9.67-3.25,13.86-.33,1.08-2.29,1.69-3.54,2.44-1.47,.88-2.99,1.68-4.87,2.72,.92,.34,1.52,.56,2.13,.79-2.17,3.69-8.6,3.14-8.9,9.18-1.51,.42-3.22,.97-4.97,1.36-3.01,.67-6.09,.99-7.52,4.49-.34,.84-1.83,1.25-2.84,1.78-11.81,6.26-24.98,8.18-37.64,11.7-7.89,2.19-7.9,2.01-8.9,10.13-1.11,8.99-2.3,17.96-3.51,27.36,41.37-11.91,82.63-23.36,126.74-19.28,1.36-45.34,4.23-90.67-.2-136.33,6.08-1.84,12.36-2.47,18.83-2.05,3.72,.25,7.49-.22,11.21,0,6.36,.37,12.85,.39,19.03,1.74,7.05,1.54,11.61,6.45,13.61,13.64,9.25,33.23,18.59,66.43,27.9,99.64,.24,.87,.53,1.73,1,3.26,1.98-5.12,3.7-9.65,5.47-14.15,11.48-29.25,24.11-57.99,38.2-86.07,1.47-2.92,2.52-5.77,2.23-9.16-.1-1.1,.92-2.96,1.91-3.41,11.56-5.27,23.58-7.42,36.17-4.52,7.6,1.75,11.79,6.74,12.79,14.36,.49,3.74,.68,7.54,.81,11.31,.95,28.9,1.29,57.84,2.96,86.7,1.22,21.05,4.4,41.98,6.21,63,.38,4.47-1.4,9.13-2.19,13.7-6.17,3.55-3.39,10.67-6.22,15.53-.64,1.1-1.83,1.86-2.73,2.82-.69,.73-1.64,1.42-1.91,2.3-.42,1.39-.35,2.92-.49,4.43v.02Z"/>
  <path class="cls-1" d="M43.95,231.12c24.67-.47,49.18-1.36,71.07,12.99,1.39-3.74,4.88-5.89,8.97-7.53,1-.41,2.03-2.04,2.12-3.18,.3-3.77,.21-7.57,.2-11.36-.12-34.2-.03-68.41-.51-102.61-.21-14.87-1.58-29.72-2.48-45.56,5.15-.85,11.06-2.18,17.03-2.74,9.01-.85,18.06-1.55,27.1-1.66,32.01-.4,64.02-.53,96.03-.74,.88,0,1.77,.11,2.66,.17,0,2.26,.12,4.31-.06,6.33-.07,.74-.73,1.6-1.37,2.08-4.55,3.45-9.16,6.82-14.29,10.61,1.77,.39,2.92,.64,4.75,1.04-2.09,1.09-3.74,1.93-5.36,2.81-1.95,1.06-4.4,1.6-4.17,4.74,.04,.54-1.33,1.36-2.18,1.76-8.6,4.05-17.84,5.58-27.15,6.95-13.5,1.98-26.95,4.24-40.43,6.39-.78,.12-1.54,.37-2.58,.62-.58,9.71-1.16,19.38-1.76,29.25,25.09-2.74,49.96-4.79,75.03-4.63-1.11,4.48-1.92,8.73-3.31,12.8-.41,1.2-2.41,1.91-3.75,2.74-1.46,.9-2.99,1.69-4.83,2.71,.98,.33,1.64,.55,2.26,.76-2.35,3.67-8.84,3.19-9.06,9.22-1.59,.44-3.22,.96-4.89,1.32-3.01,.66-6.09,1.01-7.54,4.48-.35,.84-1.83,1.25-2.83,1.79-10.96,5.86-23.21,7.69-34.96,11.06-3.51,1.01-8.23,.94-10.22,3.24-1.98,2.29-1.23,6.95-1.7,10.56-1.06,8.06-2.13,16.12-3.23,24.36,42.44-12.16,84.76-24.21,130.43-18.92-4.6,7.57-9,14.18-17.95,16.12,.13,.26,.25,.52,.38,.79,1.82,.28,3.63,.56,6.29,.98-1.74,.91-2.75,1.49-3.81,1.98-5.71,2.64-10.57,6.29-14.67,11.14-1.46,1.73-3.72,3.39-5.87,3.83-23.19,4.75-45.82,11.48-67.94,19.73-19.09,7.12-37.78,15.29-56.59,23.14-2.84,1.18-5.25,1.14-7.18-1.06-2.32-2.65-4.27-5.63-6.32-8.51-.63-.88-1.06-1.9-1.82-3.3-.56,1.68-.95,2.82-1.3,3.87-21.42-3.74-42.4-1.41-63.18,3.3-9.93,2.25-19.75,5.08-29.5,8.05-11.09,3.39-19.41-1.06-22.15-12.37-2.05-8.46-1.8-16.87,1.2-25.06,.68-1.84,2.48-3.25,3.64-4.94,.58-.85,1.17-1.87,1.22-2.85,.17-3.21,.11-6.43,.09-9.64-.22-40.75-.28-81.49-.79-122.24-.15-11.79-1.53-23.57-2.51-35.34-.29-3.47,1.4-5.31,4.33-6.02,20.99-5.07,39.76,1.5,44.46,26.54,2.09,11.12,1.19,22.19,.33,33.28-1.87,24.25-3.87,48.49-5.95,72.73-.86,10.06-2.05,20.08-3.09,30.13-.13,1.22-.2,2.45-.32,3.87h0Z"/>
  <path class="cls-1" d="M572.78,44.44c1.23-4.36,1.91-8.96,3.78-13.02,5.69-12.35,14.09-22.41,26.24-29.06,5.35-2.93,10.37-3.21,15.95-.4,11.75,5.91,18.94,17.15,17.46,28.58-.34,2.67-1.27,5.37-2.47,7.78-.72,1.44-2.3,2.89-3.81,3.43-13.06,4.65-25.83,9.79-37.84,16.9-7.12,4.21-16.72,3.48-18.15-8.52-.22-1.82-.34-3.64-.5-5.47-.22-.08-.44-.15-.66-.23h0Z"/>
</svg>
